<svg width="20" height="20" viewBox="0 0 20 20" fill="none" xmlns="http://www.w3.org/2000/svg">
<path d="M9.99935 1.66602C14.6017 1.66602 18.3327 5.39697 18.3327 9.99935C18.3327 14.6017 14.6017 18.3327 9.99935 18.3327C5.39697 18.3327 1.66602 14.6017 1.66602 9.99935C1.66602 5.39697 5.39697 1.66602 9.99935 1.66602ZM10.1324 13.3327C8.43627 13.3327 6.9092 14.0566 5.84332 15.2123C6.98301 16.1222 8.42768 16.666 9.99935 16.666C11.6406 16.666 13.1433 16.0729 14.3048 15.0894C13.2457 14.0055 11.7676 13.3327 10.1324 13.3327ZM9.99935 3.33268C6.31745 3.33268 3.33268 6.31745 3.33268 9.99935C3.33268 11.5082 3.83393 12.8999 4.67899 14.0172C6.04634 12.5694 7.98388 11.666 10.1324 11.666C12.2028 11.666 14.0771 12.5048 15.4342 13.8612C16.2098 12.7716 16.666 11.4388 16.666 9.99935C16.666 6.31745 13.6813 3.33268 9.99935 3.33268ZM9.99935 4.16602C11.8403 4.16602 13.3327 5.6584 13.3327 7.49935C13.3327 9.34027 11.8403 10.8327 9.99935 10.8327C8.1584 10.8327 6.66602 9.34027 6.66602 7.49935C6.66602 5.6584 8.1584 4.16602 9.99935 4.16602ZM9.99935 5.83268C9.07885 5.83268 8.33268 6.57887 8.33268 7.49935C8.33268 8.41985 9.07885 9.16602 9.99935 9.16602C10.9198 9.16602 11.666 8.41985 11.666 7.49935C11.666 6.57887 10.9198 5.83268 9.99935 5.83268Z" fill="#AB185A"/>
</svg>
