<svg width="20" height="20" viewBox="0 0 20 20" fill="none" xmlns="http://www.w3.org/2000/svg">
<path d="M2.5 15.416V4.16602C2.5 2.78531 3.61929 1.66602 5 1.66602H16.6667C17.1269 1.66602 17.5 2.03912 17.5 2.49935V17.4993C17.5 17.9596 17.1269 18.3327 16.6667 18.3327H5.41667C3.80583 18.3327 2.5 17.0268 2.5 15.416ZM15.8333 16.666V14.166H5.41667C4.72631 14.166 4.16667 14.7257 4.16667 15.416C4.16667 16.1063 4.72631 16.666 5.41667 16.666H15.8333ZM4.16667 12.78C4.54552 12.6 4.96933 12.4993 5.41667 12.4993H15.8333V3.33268H5C4.53977 3.33268 4.16667 3.70578 4.16667 4.16602V12.78Z" fill="#AB185A"/>
</svg>
