<svg width="16" height="16" viewBox="0 0 16 16" fill="none" xmlns="http://www.w3.org/2000/svg">
<path d="M7.25 8C7.25 8.19891 7.32902 8.38968 7.46967 8.53033C7.61032 8.67098 7.80109 8.75 8 8.75C8.19891 8.75 8.38968 8.67098 8.53033 8.53033C8.67098 8.38968 8.75 8.19891 8.75 8C8.75 7.80109 8.67098 7.61032 8.53033 7.46967C8.38968 7.32902 8.19891 7.25 8 7.25C7.80109 7.25 7.61032 7.32902 7.46967 7.46967C7.32902 7.61032 7.25 7.80109 7.25 8Z" stroke="#AB185A" stroke-width="1.5" stroke-linecap="round" stroke-linejoin="round"/>
<path d="M10.9244 14.0825V14.09M13.2794 12.2075V12.215M14.5769 9.5V9.5075M14.5769 6.5V6.5075M13.2794 3.7925V3.8M10.9244 1.9175V1.925M7.99938 1.25V1.2575M5.07438 1.9175V1.925M2.71938 3.7925V3.8M1.42188 6.5V6.5075M1.42188 9.5V9.5075M2.71938 12.2075V12.215M5.07438 14.0825V14.09M7.99938 14.75V14.7575M4.24937 8C4.24937 8.99456 4.64446 9.94839 5.34772 10.6517C6.05099 11.3549 7.00481 11.75 7.99938 11.75C8.99394 11.75 9.94776 11.3549 10.651 10.6517C11.3543 9.94839 11.7494 8.99456 11.7494 8C11.7494 7.00544 11.3543 6.05161 10.651 5.34835C9.94776 4.64509 8.99394 4.25 7.99938 4.25C7.00481 4.25 6.05099 4.64509 5.34772 5.34835C4.64446 6.05161 4.24937 7.00544 4.24937 8Z" stroke="#AB185A" stroke-width="1.5" stroke-linecap="round" stroke-linejoin="round"/>
</svg>
