<svg width="12" height="12" viewBox="0 0 12 12" fill="none" xmlns="http://www.w3.org/2000/svg">
<path d="M5.99935 9.49935C6.92761 9.49935 7.81785 9.1306 8.47422 8.47422C9.1306 7.81785 9.49935 6.92761 9.49935 5.99935C9.49935 5.07109 9.1306 4.18085 8.47422 3.52448C7.81785 2.8681 6.92761 2.49935 5.99935 2.49935C5.07109 2.49935 4.18085 2.8681 3.52448 3.52448C2.8681 4.18085 2.49935 5.07109 2.49935 5.99935C2.49935 6.92761 2.8681 7.81785 3.52448 8.47422C4.18085 9.1306 5.07109 9.49935 5.99935 9.49935ZM11.8327 5.99935C11.8327 7.54645 11.2181 9.03018 10.1241 10.1241C9.03018 11.2181 7.54645 11.8327 5.99935 11.8327C4.45225 11.8327 2.96852 11.2181 1.87456 10.1241C0.780597 9.03018 0.166016 7.54645 0.166016 5.99935C0.166016 4.45225 0.780597 2.96852 1.87456 1.87456C2.96852 0.780597 4.45225 0.166016 5.99935 0.166016C7.54645 0.166016 9.03018 0.780597 10.1241 1.87456C11.2181 2.96852 11.8327 4.45225 11.8327 5.99935ZM10.666 5.99935C10.666 4.76167 10.1744 3.57469 9.29918 2.69952C8.42401 1.82435 7.23703 1.33268 5.99935 1.33268C4.76167 1.33268 3.57469 1.82435 2.69952 2.69952C1.82435 3.57469 1.33268 4.76167 1.33268 5.99935C1.33268 7.23703 1.82435 8.42401 2.69952 9.29918C3.57469 10.1744 4.76167 10.666 5.99935 10.666C7.23703 10.666 8.42401 10.1744 9.29918 9.29918C10.1744 8.42401 10.666 7.23703 10.666 5.99935Z" fill="#AB185A"/>
</svg>
